<mxfile host="app.diagrams.net" modified="2024-03-30T23:17:01.626Z" agent="Mozilla/5.0 (Windows NT 10.0; Win64; x64) AppleWebKit/537.36 (KHTML, like Gecko) Chrome/116.0.0.0 Safari/537.36" etag="MIpd6t7hiUdqmfT4Fw1a" version="24.2.1" type="device">
  <diagram name="Page-1" id="5Z7APpFcgfUc6ZyuO-cr">
    <mxGraphModel dx="1914" dy="1140" grid="1" gridSize="10" guides="1" tooltips="1" connect="1" arrows="1" fold="1" page="1" pageScale="1" pageWidth="827" pageHeight="1169" math="0" shadow="0">
      <root>
        <mxCell id="0" />
        <mxCell id="1" parent="0" />
        <mxCell id="42mja_NqprVF22DPiqrY-39" value="" style="sketch=0;pointerEvents=1;shadow=0;dashed=0;html=1;strokeColor=none;fillColor=#505050;labelPosition=center;verticalLabelPosition=bottom;verticalAlign=top;outlineConnect=0;align=center;shape=mxgraph.office.sites.access_services;" vertex="1" parent="1">
          <mxGeometry x="30" y="30" width="59" height="49" as="geometry" />
        </mxCell>
        <mxCell id="42mja_NqprVF22DPiqrY-40" value="" style="sketch=0;pointerEvents=1;shadow=0;dashed=0;html=1;strokeColor=none;fillColor=#505050;labelPosition=center;verticalLabelPosition=bottom;verticalAlign=top;outlineConnect=0;align=center;shape=mxgraph.office.sites.blog_site;" vertex="1" parent="1">
          <mxGeometry x="130" y="32" width="56" height="49" as="geometry" />
        </mxCell>
        <mxCell id="42mja_NqprVF22DPiqrY-41" value="" style="sketch=0;pointerEvents=1;shadow=0;dashed=0;html=1;strokeColor=none;fillColor=#505050;labelPosition=center;verticalLabelPosition=bottom;verticalAlign=top;outlineConnect=0;align=center;shape=mxgraph.office.sites.business_connectivity_services;" vertex="1" parent="1">
          <mxGeometry x="230" y="32" width="34" height="51" as="geometry" />
        </mxCell>
        <mxCell id="42mja_NqprVF22DPiqrY-42" value="" style="sketch=0;pointerEvents=1;shadow=0;dashed=0;html=1;strokeColor=none;fillColor=#505050;labelPosition=center;verticalLabelPosition=bottom;verticalAlign=top;outlineConnect=0;align=center;shape=mxgraph.office.sites.excel_services;" vertex="1" parent="1">
          <mxGeometry x="300" y="30" width="60" height="49" as="geometry" />
        </mxCell>
        <mxCell id="42mja_NqprVF22DPiqrY-43" value="" style="sketch=0;pointerEvents=1;shadow=0;dashed=0;html=1;strokeColor=none;fillColor=#505050;labelPosition=center;verticalLabelPosition=bottom;verticalAlign=top;outlineConnect=0;align=center;shape=mxgraph.office.sites.meeting_workspace_site;" vertex="1" parent="1">
          <mxGeometry x="400" y="30" width="58" height="50" as="geometry" />
        </mxCell>
        <mxCell id="42mja_NqprVF22DPiqrY-44" value="" style="sketch=0;pointerEvents=1;shadow=0;dashed=0;html=1;strokeColor=none;fillColor=#505050;labelPosition=center;verticalLabelPosition=bottom;verticalAlign=top;outlineConnect=0;align=center;shape=mxgraph.office.sites.my_site;" vertex="1" parent="1">
          <mxGeometry x="31" y="121" width="58" height="49" as="geometry" />
        </mxCell>
        <mxCell id="42mja_NqprVF22DPiqrY-45" value="" style="sketch=0;pointerEvents=1;shadow=0;dashed=0;html=1;strokeColor=none;fillColor=#505050;labelPosition=center;verticalLabelPosition=bottom;verticalAlign=top;outlineConnect=0;align=center;shape=mxgraph.office.sites.powerpoint_automation_services;" vertex="1" parent="1">
          <mxGeometry x="127" y="121" width="59" height="49" as="geometry" />
        </mxCell>
        <mxCell id="42mja_NqprVF22DPiqrY-46" value="" style="sketch=0;pointerEvents=1;shadow=0;dashed=0;html=1;strokeColor=none;fillColor=#505050;labelPosition=center;verticalLabelPosition=bottom;verticalAlign=top;outlineConnect=0;align=center;shape=mxgraph.office.sites.publish;" vertex="1" parent="1">
          <mxGeometry x="220" y="126" width="57" height="48" as="geometry" />
        </mxCell>
        <mxCell id="42mja_NqprVF22DPiqrY-47" value="" style="sketch=0;pointerEvents=1;shadow=0;dashed=0;html=1;strokeColor=none;fillColor=#505050;labelPosition=center;verticalLabelPosition=bottom;verticalAlign=top;outlineConnect=0;align=center;shape=mxgraph.office.sites.site_collection;" vertex="1" parent="1">
          <mxGeometry x="311" y="130" width="52" height="40" as="geometry" />
        </mxCell>
        <mxCell id="42mja_NqprVF22DPiqrY-48" value="" style="sketch=0;pointerEvents=1;shadow=0;dashed=0;html=1;strokeColor=none;fillColor=#505050;labelPosition=center;verticalLabelPosition=bottom;verticalAlign=top;outlineConnect=0;align=center;shape=mxgraph.office.sites.site_shared;" vertex="1" parent="1">
          <mxGeometry x="402" y="130" width="56" height="50" as="geometry" />
        </mxCell>
        <mxCell id="42mja_NqprVF22DPiqrY-49" value="" style="sketch=0;pointerEvents=1;shadow=0;dashed=0;html=1;strokeColor=none;fillColor=#505050;labelPosition=center;verticalLabelPosition=bottom;verticalAlign=top;outlineConnect=0;align=center;shape=mxgraph.office.sites.site_team;" vertex="1" parent="1">
          <mxGeometry x="31" y="220" width="60" height="49" as="geometry" />
        </mxCell>
        <mxCell id="42mja_NqprVF22DPiqrY-50" value="" style="sketch=0;pointerEvents=1;shadow=0;dashed=0;html=1;strokeColor=none;fillColor=#505050;labelPosition=center;verticalLabelPosition=bottom;verticalAlign=top;outlineConnect=0;align=center;shape=mxgraph.office.sites.subsite;" vertex="1" parent="1">
          <mxGeometry x="130" y="220" width="53" height="40" as="geometry" />
        </mxCell>
        <mxCell id="42mja_NqprVF22DPiqrY-51" value="" style="sketch=0;pointerEvents=1;shadow=0;dashed=0;html=1;strokeColor=none;labelPosition=center;verticalLabelPosition=bottom;verticalAlign=top;outlineConnect=0;align=center;shape=mxgraph.office.sites.subsite;fillColor=#2072B8;" vertex="1" parent="1">
          <mxGeometry x="220" y="220" width="53" height="40" as="geometry" />
        </mxCell>
        <mxCell id="42mja_NqprVF22DPiqrY-52" value="" style="sketch=0;pointerEvents=1;shadow=0;dashed=0;html=1;strokeColor=none;labelPosition=center;verticalLabelPosition=bottom;verticalAlign=top;outlineConnect=0;align=center;shape=mxgraph.office.sites.subsite;fillColor=#DA4026;" vertex="1" parent="1">
          <mxGeometry x="310" y="220" width="53" height="40" as="geometry" />
        </mxCell>
        <mxCell id="42mja_NqprVF22DPiqrY-53" value="" style="sketch=0;pointerEvents=1;shadow=0;dashed=0;html=1;strokeColor=none;labelPosition=center;verticalLabelPosition=bottom;verticalAlign=top;outlineConnect=0;align=center;shape=mxgraph.office.sites.subsite;fillColor=#7FBA42;" vertex="1" parent="1">
          <mxGeometry x="405" y="220" width="53" height="40" as="geometry" />
        </mxCell>
        <mxCell id="42mja_NqprVF22DPiqrY-54" value="" style="sketch=0;pointerEvents=1;shadow=0;dashed=0;html=1;strokeColor=none;fillColor=#505050;labelPosition=center;verticalLabelPosition=bottom;verticalAlign=top;outlineConnect=0;align=center;shape=mxgraph.office.sites.website_public;" vertex="1" parent="1">
          <mxGeometry x="405" y="312" width="58" height="48" as="geometry" />
        </mxCell>
        <mxCell id="42mja_NqprVF22DPiqrY-55" value="" style="sketch=0;pointerEvents=1;shadow=0;dashed=0;html=1;strokeColor=none;fillColor=#505050;labelPosition=center;verticalLabelPosition=bottom;verticalAlign=top;outlineConnect=0;align=center;shape=mxgraph.office.sites.website;" vertex="1" parent="1">
          <mxGeometry x="310" y="305.5" width="59" height="49" as="geometry" />
        </mxCell>
        <mxCell id="42mja_NqprVF22DPiqrY-56" value="" style="sketch=0;pointerEvents=1;shadow=0;dashed=0;html=1;strokeColor=none;fillColor=#505050;labelPosition=center;verticalLabelPosition=bottom;verticalAlign=top;outlineConnect=0;align=center;shape=mxgraph.office.sites.upgrade_site;" vertex="1" parent="1">
          <mxGeometry x="220" y="316" width="59" height="48" as="geometry" />
        </mxCell>
        <mxCell id="42mja_NqprVF22DPiqrY-57" value="" style="sketch=0;pointerEvents=1;shadow=0;dashed=0;html=1;strokeColor=none;fillColor=#505050;labelPosition=center;verticalLabelPosition=bottom;verticalAlign=top;outlineConnect=0;align=center;shape=mxgraph.office.sites.subsite;" vertex="1" parent="1">
          <mxGeometry x="139" y="325.5" width="38" height="29" as="geometry" />
        </mxCell>
        <mxCell id="42mja_NqprVF22DPiqrY-58" value="" style="sketch=0;pointerEvents=1;shadow=0;dashed=0;html=1;strokeColor=none;labelPosition=center;verticalLabelPosition=bottom;verticalAlign=top;outlineConnect=0;align=center;shape=mxgraph.office.sites.subsite;fillColor=#CCCBCB;" vertex="1" parent="1">
          <mxGeometry x="33" y="320" width="53" height="40" as="geometry" />
        </mxCell>
        <mxCell id="42mja_NqprVF22DPiqrY-59" value="" style="sketch=0;pointerEvents=1;shadow=0;dashed=0;html=1;strokeColor=none;fillColor=#505050;labelPosition=center;verticalLabelPosition=bottom;verticalAlign=top;outlineConnect=0;align=center;shape=mxgraph.office.sites.word_automation_services;" vertex="1" parent="1">
          <mxGeometry x="127" y="420" width="60" height="49" as="geometry" />
        </mxCell>
        <mxCell id="42mja_NqprVF22DPiqrY-60" value="" style="sketch=0;pointerEvents=1;shadow=0;dashed=0;html=1;strokeColor=none;fillColor=#505050;labelPosition=center;verticalLabelPosition=bottom;verticalAlign=top;outlineConnect=0;align=center;shape=mxgraph.office.sites.wiki_site;" vertex="1" parent="1">
          <mxGeometry x="33" y="420" width="59" height="50" as="geometry" />
        </mxCell>
      </root>
    </mxGraphModel>
  </diagram>
</mxfile>
